<?xml version="1.0" encoding="iso-8859-1"?>
<svg fill="#000000" height="100px" width="100px" version="1.1" id="Capa_1" xmlns="http://www.w3.org/2000/svg" xmlns:xlink="http://www.w3.org/1999/xlink" 
	 viewBox="0 0 489.023 489.023" xml:space="preserve">
<g>
	<g>
		<g>
			<path d="M488.127,461.861l-62.4-319.4c-2.1-9.4-10.4-16.6-19.8-16.6h-47.9v-86.3c0-21.8-17.7-39.5-39.5-39.5h-148.7
				c-21.8,0-39.5,17.7-39.5,39.5v86.3h-46.9c-9.4,0-17.7,7.3-19.8,16.6l-63.4,322.6c-2.3,18.5,13.5,23.9,19.8,23.9h448.6
				c0,0,0.3,0,0.8,0C479.827,488.961,492.527,478.361,488.127,461.861z M171.927,40.561h145.6v85.3h-145.6V40.561z M44.927,448.361
				l55.2-280.9h288.2l55.1,280.9H44.927z"/>
		</g>
	</g>
</g>
</svg>